<svg id="3dd4f710-53d6-4113-b900-8bfa3503d7d1" data-name="Layer 1" xmlns="http://www.w3.org/2000/svg" viewBox="0 0 142.79 86.19"><defs><style>.b475ac09-76e5-48ba-bda7-f3269fb05cdd{fill:#fff;}</style></defs><title>Falcon-IO-Logo-Wing-White-2016</title><path class="b475ac09-76e5-48ba-bda7-f3269fb05cdd" d="M139.62,86c-13.8-3-26.08-11.76-35.67-24.43-2.06,1-9.2,5.34-29.62,4C50.52,64,36.7,44.86,36.7,44.86,63.88,48,91.93,45.46,96.08,45a67.16,67.16,0,0,1-1.59-7.24c-7.6.13-41.2,0.47-61.37-5.3C10.57,26.07,0,0,0,0,39.69,2.11,98.53,12.09,117.36,15.92a7.1,7.1,0,0,1,5.9,6.85c-0.17,31,9.66,49,18.75,60.13C143.51,84.82,142.92,86.85,139.62,86Z"/></svg>